<svg xmlns="http://www.w3.org/2000/svg" xmlns:xlink="http://www.w3.org/1999/xlink" width="200" height="200" viewBox="0 0 200 200" fill="none"><g opacity="1" transform="translate(0 0)  rotate(0 100 100)"><g opacity="1" transform="translate(78 21)  rotate(0 22.5 75.125)"><path id="分组 1" fill-rule="evenodd" style="fill:#231815" transform="translate(0 0)  rotate(0 22.5 75.125)" opacity="1" d="M26.2422 11.2546L26.2422 3.7546L18.7422 3.7546L18.7422 11.2546L26.2422 11.2546Z M26 41L26 15L19 15L19 41L26 41Z M4 146.25L41 146.25L41 103.25L41 56.25C41 54.19 39.72 51.1 37.5 48.75C35.27 46.38 31.58 44.75 29.5 44.75L16 44.75C13.94 44.75 9.48 46.4 7 48.75C4.51 51.11 4 54.17 4 56.25L4 146.25Z M22 0L19 0C16.93 0 15.5 1.18 15.5 3.25L15.5 41.25C7.93 41.25 0 47.98 0 56.25L0 150.25L45 150.25L45 56.25C45 47.97 36.87 41.25 29.5 41.25L29.5 3.25C29.5 1.18 28.5 0 26.5 0 "></path></g></g>

/Red/<rect xmlns="http://www.w3.org/2000/svg" x="82" y="155.4" width="37" height="12.1" style="fill:#de1c31;stroke-width:0.1;stroke:rgb(0,0,0)"></rect>
/Sparkling/<rect xmlns="http://www.w3.org/2000/svg" x="82" y="151.3" width="37" height="4.1" style="fill:#83cbac;stroke-width:0.1;stroke:rgb(0,0,0)"></rect>
/White/<rect xmlns="http://www.w3.org/2000/svg" x="82" y="82.5" width="37" height="68.8" style="fill:#fbf2e3;stroke-width:0.1;stroke:rgb(0,0,0)"></rect>
	
	
</svg>